# Blender 3.4.1
# www.blender.org
mtllib gizmo_arrow.mtl
o Cone
v 0.000000 10.961171 -0.487424
v 0.126155 10.961171 -0.470816
v 0.243712 10.961171 -0.422122
v 0.344661 10.961171 -0.344661
v 0.422122 10.961171 -0.243712
v 0.470816 10.961171 -0.126155
v 0.487424 10.961171 0.000000
v 0.470816 10.961171 0.126155
v 0.422122 10.961171 0.243712
v 0.344661 10.961171 0.344661
v 0.243712 10.961171 0.422122
v 0.126155 10.961171 0.470816
v 0.000000 10.961171 0.487424
v -0.126155 10.961171 0.470816
v -0.243712 10.961171 0.422122
v -0.344661 10.961171 0.344661
v -0.422122 10.961171 0.243712
v -0.470816 10.961171 0.126155
v -0.487424 10.961171 0.000000
v -0.470816 10.961171 -0.126155
v -0.422122 10.961171 -0.243712
v -0.344661 10.961171 -0.344661
v -0.243712 10.961171 -0.422122
v -0.126155 10.961171 -0.470816
v 0.000000 13.661709 0.000000
v 0.000000 10.961171 -1.000000
v 0.258819 10.961171 -0.965926
v 0.500000 10.961171 -0.866025
v 0.707107 10.961171 -0.707107
v 0.866025 10.961171 -0.500000
v 0.965926 10.961171 -0.258819
v 1.000000 10.961171 0.000000
v 0.965926 10.961171 0.258819
v 0.866025 10.961171 0.500000
v 0.707107 10.961171 0.707107
v 0.500000 10.961171 0.866025
v 0.258819 10.961171 0.965926
v 0.000000 10.961171 1.000000
v -0.258819 10.961171 0.965926
v -0.500000 10.961171 0.866025
v -0.707107 10.961171 0.707107
v -0.866025 10.961171 0.500000
v -0.965926 10.961171 0.258819
v -1.000000 10.961171 0.000000
v -0.965926 10.961171 -0.258819
v -0.866025 10.961171 -0.500000
v -0.707107 10.961171 -0.707107
v -0.500000 10.961171 -0.866025
v -0.258819 10.961171 -0.965926
v 0.000000 0.770034 -0.487424
v 0.126155 0.770034 -0.470816
v 0.243712 0.770034 -0.422122
v 0.344661 0.770034 -0.344661
v 0.422122 0.770034 -0.243712
v 0.470816 0.770034 -0.126155
v 0.487424 0.770034 0.000000
v 0.470816 0.770034 0.126155
v 0.422122 0.770034 0.243712
v 0.344661 0.770034 0.344661
v 0.243712 0.770034 0.422122
v 0.126155 0.770034 0.470816
v 0.000000 0.770034 0.487424
v -0.126155 0.770034 0.470816
v -0.243712 0.770034 0.422122
v -0.344661 0.770034 0.344661
v -0.422122 0.770034 0.243712
v -0.470816 0.770034 0.126155
v -0.487424 0.770034 0.000000
v -0.470816 0.770034 -0.126155
v -0.422122 0.770034 -0.243712
v -0.344661 0.770034 -0.344661
v -0.243712 0.770034 -0.422122
v -0.126155 0.770034 -0.470816
vn -0.0000 0.3473 -0.9378
vn -0.0000 1.0000 -0.0000
vn 0.2427 0.3473 -0.9058
vn 0.4689 0.3473 -0.8121
vn 0.6631 0.3473 -0.6631
vn 0.8121 0.3473 -0.4689
vn 0.9058 0.3473 -0.2427
vn 0.9378 0.3473 -0.0000
vn 0.9058 0.3473 0.2427
vn 0.8121 0.3473 0.4689
vn 0.6631 0.3473 0.6631
vn 0.4689 0.3473 0.8121
vn 0.2427 0.3473 0.9058
vn -0.0000 0.3473 0.9378
vn -0.2427 0.3473 0.9058
vn -0.4689 0.3473 0.8121
vn -0.6631 0.3473 0.6631
vn -0.8121 0.3473 0.4689
vn -0.9058 0.3473 0.2427
vn -0.9378 0.3473 -0.0000
vn -0.9058 0.3473 -0.2427
vn -0.8121 0.3473 -0.4689
vn -0.6631 0.3473 -0.6631
vn -0.4689 0.3473 -0.8121
vn 0.2588 -0.0000 -0.9659
vn 0.5000 -0.0000 -0.8660
vn -0.2427 0.3473 -0.9058
vn -0.0000 -1.0000 -0.0000
vn -0.8660 -0.0000 0.5000
vn -0.9659 -0.0000 0.2588
vn 0.7071 -0.0000 0.7071
vn 0.5000 -0.0000 0.8660
vn 0.7071 -0.0000 -0.7071
vn -1.0000 -0.0000 -0.0000
vn 0.2588 -0.0000 0.9659
vn 0.8660 -0.0000 -0.5000
vn -0.9659 -0.0000 -0.2588
vn -0.0000 -0.0000 1.0000
vn 0.9659 -0.0000 -0.2588
vn -0.8660 -0.0000 -0.5000
vn -0.2588 -0.0000 0.9659
vn 1.0000 -0.0000 -0.0000
vn -0.7071 -0.0000 -0.7071
vn -0.5000 -0.0000 0.8660
vn 0.9659 -0.0000 0.2588
vn -0.5000 -0.0000 -0.8660
vn -0.7071 -0.0000 0.7071
vn 0.8660 -0.0000 0.5000
vn -0.2588 -0.0000 -0.9659
vn -0.0000 -0.0000 -1.0000
vt 0.750000 0.366982
vt 0.780277 0.362996
vt 0.808491 0.351309
vt 0.832719 0.332719
vt 0.851309 0.308491
vt 0.862996 0.280277
vt 0.866982 0.250000
vt 0.862996 0.219723
vt 0.851309 0.191509
vt 0.832719 0.167281
vt 0.808491 0.148691
vt 0.780277 0.137004
vt 0.750000 0.133018
vt 0.719723 0.137004
vt 0.691509 0.148691
vt 0.667281 0.167281
vt 0.648691 0.191509
vt 0.637004 0.219723
vt 0.633018 0.250000
vt 0.637004 0.280277
vt 0.648691 0.308491
vt 0.667281 0.332719
vt 0.691509 0.351309
vt 0.719723 0.362996
vt 0.250000 0.250000
vt 0.250000 0.490000
vt 0.750000 0.490000
vt 0.312117 0.481822
vt 0.812117 0.481822
vt 0.370000 0.457846
vt 0.870000 0.457846
vt 0.419706 0.419706
vt 0.919706 0.419706
vt 0.457846 0.370000
vt 0.957846 0.370000
vt 0.481822 0.312117
vt 0.981822 0.312117
vt 0.490000 0.250000
vt 0.990000 0.250000
vt 0.481822 0.187883
vt 0.981822 0.187883
vt 0.457846 0.130000
vt 0.957846 0.130000
vt 0.419706 0.080294
vt 0.919706 0.080294
vt 0.370000 0.042154
vt 0.870000 0.042154
vt 0.312117 0.018178
vt 0.812117 0.018178
vt 0.250000 0.010000
vt 0.750000 0.010000
vt 0.187883 0.018178
vt 0.687883 0.018178
vt 0.130000 0.042154
vt 0.630000 0.042154
vt 0.080294 0.080294
vt 0.580294 0.080294
vt 0.042154 0.130000
vt 0.542154 0.130000
vt 0.018178 0.187883
vt 0.518178 0.187883
vt 0.010000 0.250000
vt 0.510000 0.250000
vt 0.018178 0.312117
vt 0.518178 0.312117
vt 0.042154 0.370000
vt 0.542154 0.370000
vt 0.080294 0.419706
vt 0.580294 0.419706
vt 0.130000 0.457846
vt 0.630000 0.457846
vt 0.187883 0.481822
vt 0.687883 0.481822
vt 0.750000 0.366982
vt 0.780277 0.362996
vt 0.808491 0.351309
vt 0.832719 0.332719
vt 0.851309 0.308491
vt 0.862996 0.280277
vt 0.866982 0.250000
vt 0.862996 0.219723
vt 0.851309 0.191509
vt 0.832719 0.167281
vt 0.808491 0.148691
vt 0.780277 0.137004
vt 0.750000 0.133018
vt 0.719723 0.137004
vt 0.691509 0.148691
vt 0.667281 0.167281
vt 0.648691 0.191509
vt 0.637004 0.219723
vt 0.633018 0.250000
vt 0.637004 0.280277
vt 0.648691 0.308491
vt 0.667281 0.332719
vt 0.691509 0.351309
vt 0.719723 0.362996
s 1
f 26/26/1 25/25/2 27/28/3
f 27/28/3 25/25/2 28/30/4
f 28/30/4 25/25/2 29/32/5
f 29/32/5 25/25/2 30/34/6
f 30/34/6 25/25/2 31/36/7
f 31/36/7 25/25/2 32/38/8
f 32/38/8 25/25/2 33/40/9
f 33/40/9 25/25/2 34/42/10
f 34/42/10 25/25/2 35/44/11
f 35/44/11 25/25/2 36/46/12
f 36/46/12 25/25/2 37/48/13
f 37/48/13 25/25/2 38/50/14
f 38/50/14 25/25/2 39/52/15
f 39/52/15 25/25/2 40/54/16
f 40/54/16 25/25/2 41/56/17
f 41/56/17 25/25/2 42/58/18
f 42/58/18 25/25/2 43/60/19
f 43/60/19 25/25/2 44/62/20
f 44/62/20 25/25/2 45/64/21
f 45/64/21 25/25/2 46/66/22
f 46/66/22 25/25/2 47/68/23
f 47/68/23 25/25/2 48/70/24
f 2/2/25 3/3/26 52/76/26 51/75/25
f 48/70/24 25/25/2 49/72/27
f 49/72/27 25/25/2 26/26/1
f 2/2/28 1/1/28 26/27/28 27/29/28
f 3/3/28 2/2/28 27/29/28 28/31/28
f 4/4/28 3/3/28 28/31/28 29/33/28
f 5/5/28 4/4/28 29/33/28 30/35/28
f 6/6/28 5/5/28 30/35/28 31/37/28
f 7/7/28 6/6/28 31/37/28 32/39/28
f 8/8/28 7/7/28 32/39/28 33/41/28
f 9/9/28 8/8/28 33/41/28 34/43/28
f 10/10/28 9/9/28 34/43/28 35/45/28
f 11/11/28 10/10/28 35/45/28 36/47/28
f 12/12/28 11/11/28 36/47/28 37/49/28
f 13/13/28 12/12/28 37/49/28 38/51/28
f 14/14/28 13/13/28 38/51/28 39/53/28
f 15/15/28 14/14/28 39/53/28 40/55/28
f 16/16/28 15/15/28 40/55/28 41/57/28
f 17/17/28 16/16/28 41/57/28 42/59/28
f 18/18/28 17/17/28 42/59/28 43/61/28
f 19/19/28 18/18/28 43/61/28 44/63/28
f 20/20/28 19/19/28 44/63/28 45/65/28
f 21/21/28 20/20/28 45/65/28 46/67/28
f 22/22/28 21/21/28 46/67/28 47/69/28
f 23/23/28 22/22/28 47/69/28 48/71/28
f 24/24/28 23/23/28 48/71/28 49/73/28
f 1/1/28 24/24/28 49/73/28 26/27/28
f 50/74/28 51/75/28 52/76/28 53/77/28 54/78/28 55/79/28 56/80/28 57/81/28 58/82/28 59/83/28 60/84/28 61/85/28 62/86/28 63/87/28 64/88/28 65/89/28 66/90/28 67/91/28 68/92/28 69/93/28 70/94/28 71/95/28 72/96/28 73/97/28
f 17/17/29 18/18/30 67/91/30 66/90/29
f 10/10/31 11/11/32 60/84/32 59/83/31
f 3/3/26 4/4/33 53/77/33 52/76/26
f 18/18/30 19/19/34 68/92/34 67/91/30
f 11/11/32 12/12/35 61/85/35 60/84/32
f 4/4/33 5/5/36 54/78/36 53/77/33
f 19/19/34 20/20/37 69/93/37 68/92/34
f 12/12/35 13/13/38 62/86/38 61/85/35
f 5/5/36 6/6/39 55/79/39 54/78/36
f 20/20/37 21/21/40 70/94/40 69/93/37
f 13/13/38 14/14/41 63/87/41 62/86/38
f 6/6/39 7/7/42 56/80/42 55/79/39
f 21/21/40 22/22/43 71/95/43 70/94/40
f 14/14/41 15/15/44 64/88/44 63/87/41
f 7/7/42 8/8/45 57/81/45 56/80/42
f 22/22/43 23/23/46 72/96/46 71/95/43
f 15/15/44 16/16/47 65/89/47 64/88/44
f 8/8/45 9/9/48 58/82/48 57/81/45
f 23/23/46 24/24/49 73/97/49 72/96/46
f 1/1/50 2/2/25 51/75/25 50/74/50
f 16/16/47 17/17/29 66/90/29 65/89/47
f 9/9/48 10/10/31 59/83/31 58/82/48
f 24/24/49 1/1/50 50/74/50 73/97/49
